<svg width="81" height="81" viewBox="0 0 81 81" fill="none" xmlns="http://www.w3.org/2000/svg">
  <rect x="0.142628" y="0.487038" width="80" height="80" rx="20" fill="#D9D9D9"/>
  <path d="M18.6426 0.487038C26.476 7.6537 33.7426 24.487 0.142628 34.487M64.1426 0.487038C57.3323 2.0688 49.1227 4.92934 41.1426 9.19325M15.1426 80.487C7.41801 63.6826 7.58676 49.7708 12.1916 38.487M12.1916 38.487C17.5954 25.2458 29.108 15.6236 41.1426 9.19325M12.1916 38.487C23.7957 43.2889 37.4261 48.1166 48.6426 50.6228M41.1426 9.19325C86.1599 50.4808 73.1747 56.1043 48.6426 50.6228M48.6426 50.6228C42.976 66.5776 28.3426 92.887 15.1426 70.487M32.1426 27.987L61.6426 43.487" stroke="black"/>
  <circle cx="29.6426" cy="26.987" r="1.5" fill="black"/>
</svg>